<?xml version="1.0" encoding="UTF-8" standalone="no"?>
<!DOCTYPE svg PUBLIC "-//W3C//DTD SVG 1.1//EN"
 "http://www.w3.org/Graphics/SVG/1.1/DTD/svg11.dtd">
<!-- Generated by graphviz version 2.40.1 (20161225.0304)
 -->
<!-- Title: balls Pages: 1 -->
<svg width="1526pt" height="672pt"
 viewBox="0.00 0.00 1526.22 672.25" xmlns="http://www.w3.org/2000/svg" xmlns:xlink="http://www.w3.org/1999/xlink">
<g id="graph0" class="graph" transform="scale(1 1) rotate(0) translate(4 668.2479)">
<title>balls</title>
<polygon fill="#ffffff" stroke="transparent" points="-4,4 -4,-668.2479 1522.2212,-668.2479 1522.2212,4 -4,4"/>
<!-- balls_expansion -->
<g id="node1" class="node">
<title>balls_expansion</title>
<g id="a_node1"><a xlink:href="https://e621.net/wiki/show/balls_expansion" xlink:title="balls_expansion">
<ellipse fill="#ffffff" stroke="#ffffff" cx="286.9158" cy="-384.8127" rx="84.485" ry="18"/>
<text text-anchor="middle" x="286.9158" y="-381.1127" font-family="Times,serif" font-size="14.00" fill="#000000">balls_expansion</text>
</a>
</g>
</g>
<!-- balls -->
<g id="node4" class="node">
<title>balls</title>
<ellipse fill="none" stroke="#000000" cx="845.2567" cy="-405.6638" rx="32.4942" ry="18"/>
<text text-anchor="middle" x="845.2567" y="-401.9638" font-family="Times,serif" font-size="14.00" fill="#000000">balls</text>
</g>
<!-- balls_expansion&#45;&gt;balls -->
<g id="edge3" class="edge">
<title>balls_expansion&#45;&gt;balls</title>
<path fill="none" stroke="#000000" stroke-width="2" stroke-dasharray="5,2" d="M370.2035,-387.923C490.9498,-392.4323 710.2477,-400.6219 802.5244,-404.0679"/>
<polygon fill="#000000" stroke="#000000" stroke-width="2" points="802.4907,-407.569 812.6144,-404.4447 802.752,-400.5739 802.4907,-407.569"/>
</g>
<!-- ball_growth -->
<g id="node2" class="node">
<title>ball_growth</title>
<ellipse fill="none" stroke="#000000" stroke-width="0" cx="255.4331" cy="-625.2095" rx="65.7887" ry="18"/>
<text text-anchor="middle" x="255.4331" y="-621.5095" font-family="Times,serif" font-size="14.00" fill="#ff0000">ball_growth</text>
</g>
<!-- ball_growth&#45;&gt;balls_expansion -->
<g id="edge1" class="edge">
<title>ball_growth&#45;&gt;balls_expansion</title>
<path fill="none" stroke="#ff0000" stroke-dasharray="1,5" d="M257.7995,-607.1406C263.2351,-565.6352 276.6476,-463.219 283.1971,-413.2085"/>
<polygon fill="#ff0000" stroke="#ff0000" points="286.6938,-413.461 284.5221,-403.0912 279.7531,-412.552 286.6938,-413.461"/>
</g>
<!-- balls_growth -->
<g id="node3" class="node">
<title>balls_growth</title>
<ellipse fill="none" stroke="#000000" stroke-width="0" cx="70.8437" cy="-129.5564" rx="70.6878" ry="18"/>
<text text-anchor="middle" x="70.8437" y="-125.8564" font-family="Times,serif" font-size="14.00" fill="#ff0000">balls_growth</text>
</g>
<!-- balls_growth&#45;&gt;balls_expansion -->
<g id="edge2" class="edge">
<title>balls_growth&#45;&gt;balls_expansion</title>
<path fill="none" stroke="#ff0000" stroke-dasharray="1,5" d="M86.0375,-147.5056C123.6955,-191.9928 221.4533,-307.4787 265.1992,-359.1577"/>
<polygon fill="#ff0000" stroke="#ff0000" points="262.6065,-361.5121 271.7389,-366.8834 267.9493,-356.9894 262.6065,-361.5121"/>
</g>
<!-- micro_balls -->
<g id="node5" class="node">
<title>micro_balls</title>
<g id="a_node5"><a xlink:href="https://e621.net/wiki/show/micro_balls" xlink:title="micro_balls">
<ellipse fill="#ffffff" stroke="#ffffff" cx="919.1028" cy="-359.6561" rx="64.189" ry="18"/>
<text text-anchor="middle" x="919.1028" y="-355.9561" font-family="Times,serif" font-size="14.00" fill="#000000">micro_balls</text>
</a>
</g>
</g>
<!-- micro_balls&#45;&gt;balls -->
<g id="edge4" class="edge">
<title>micro_balls&#45;&gt;balls</title>
<path fill="none" stroke="#000000" stroke-width="2" stroke-dasharray="5,2" d="M892.4427,-376.2659C887.1494,-379.5637 881.5505,-383.052 876.1304,-386.4288"/>
<polygon fill="#000000" stroke="#000000" stroke-width="2" points="873.8997,-383.6948 867.263,-391.9534 877.6013,-389.6361 873.8997,-383.6948"/>
</g>
<!-- small_balls -->
<g id="node44" class="node">
<title>small_balls</title>
<g id="a_node44"><a xlink:href="https://e621.net/wiki/show/small_balls" xlink:title="small_balls">
<ellipse fill="#ffffff" stroke="#ffffff" cx="824.2688" cy="-311.1631" rx="62.2891" ry="18"/>
<text text-anchor="middle" x="824.2688" y="-307.4631" font-family="Times,serif" font-size="14.00" fill="#000000">small_balls</text>
</a>
</g>
</g>
<!-- micro_balls&#45;&gt;small_balls -->
<g id="edge48" class="edge">
<title>micro_balls&#45;&gt;small_balls</title>
<path fill="none" stroke="#000000" stroke-width="2" d="M888.0506,-343.7777C880.4407,-339.8864 872.1899,-335.6674 864.2269,-331.5955"/>
<polygon fill="#000000" stroke="#000000" stroke-width="2" points="865.5639,-328.3482 855.0669,-326.9116 862.3769,-334.5806 865.5639,-328.3482"/>
</g>
<!-- testicle_pregnancy -->
<g id="node6" class="node">
<title>testicle_pregnancy</title>
<g id="a_node6"><a xlink:href="https://e621.net/wiki/show/testicle_pregnancy" xlink:title="testicle_pregnancy">
<ellipse fill="#ffffff" stroke="#ffffff" cx="775.2078" cy="-93.8477" rx="99.3824" ry="18"/>
<text text-anchor="middle" x="775.2078" y="-90.1477" font-family="Times,serif" font-size="14.00" fill="#000000">testicle_pregnancy</text>
</a>
</g>
</g>
<!-- testicle_pregnancy&#45;&gt;balls -->
<g id="edge5" class="edge">
<title>testicle_pregnancy&#45;&gt;balls</title>
<path fill="none" stroke="#000000" stroke-width="2" stroke-dasharray="5,2" d="M779.2767,-111.96C790.9802,-164.0572 824.7946,-314.5787 838.9291,-377.4973"/>
<polygon fill="#000000" stroke="#000000" stroke-width="2" points="835.5697,-378.5118 841.1766,-387.5014 842.3995,-376.9774 835.5697,-378.5118"/>
</g>
<!-- backsack -->
<g id="node7" class="node">
<title>backsack</title>
<g id="a_node7"><a xlink:href="https://e621.net/wiki/show/backsack" xlink:title="backsack">
<ellipse fill="#ffffff" stroke="#ffffff" cx="834.04" cy="-147.0221" rx="54.6905" ry="18"/>
<text text-anchor="middle" x="834.04" y="-143.3221" font-family="Times,serif" font-size="14.00" fill="#000000">backsack</text>
</a>
</g>
</g>
<!-- backsack&#45;&gt;balls -->
<g id="edge7" class="edge">
<title>backsack&#45;&gt;balls</title>
<path fill="none" stroke="#000000" stroke-width="2" d="M834.8287,-165.2093C836.7555,-209.6373 841.7129,-323.9481 844.0295,-377.366"/>
<polygon fill="#000000" stroke="#000000" stroke-width="2" points="840.5387,-377.6577 844.4688,-387.4967 847.5322,-377.3544 840.5387,-377.6577"/>
</g>
<!-- back_sack -->
<g id="node8" class="node">
<title>back_sack</title>
<ellipse fill="none" stroke="#000000" stroke-width="0" cx="1059.9972" cy="-62.0575" rx="59.5901" ry="18"/>
<text text-anchor="middle" x="1059.9972" y="-58.3575" font-family="Times,serif" font-size="14.00" fill="#000000">back_sack</text>
</g>
<!-- back_sack&#45;&gt;backsack -->
<g id="edge6" class="edge">
<title>back_sack&#45;&gt;backsack</title>
<path fill="none" stroke="#000000" d="M1022.4313,-76.183C983.1967,-90.9361 921.6313,-114.0859 879.6369,-129.8767"/>
<polygon fill="#000000" stroke="#000000" points="878.3278,-126.6296 870.1995,-133.4253 880.7916,-133.1817 878.3278,-126.6296"/>
</g>
<!-- ball_fondling -->
<g id="node9" class="node">
<title>ball_fondling</title>
<g id="a_node9"><a xlink:href="https://e621.net/wiki/show/ball_fondling" xlink:title="ball_fondling">
<ellipse fill="#ffffff" stroke="#ffffff" cx="1209.0661" cy="-153.2051" rx="70.6878" ry="18"/>
<text text-anchor="middle" x="1209.0661" y="-149.5051" font-family="Times,serif" font-size="14.00" fill="#000000">ball_fondling</text>
</a>
</g>
</g>
<!-- ball_fondling&#45;&gt;balls -->
<g id="edge12" class="edge">
<title>ball_fondling&#45;&gt;balls</title>
<path fill="none" stroke="#000000" stroke-width="2" d="M1184.6306,-170.1616C1119.8506,-215.1145 943.9226,-337.1964 874.241,-385.5506"/>
<polygon fill="#000000" stroke="#000000" stroke-width="2" points="872.1205,-382.7619 865.9002,-391.3385 876.1113,-388.5129 872.1205,-382.7619"/>
</g>
<!-- ball_cradling -->
<g id="node10" class="node">
<title>ball_cradling</title>
<ellipse fill="none" stroke="#000000" stroke-width="0" cx="920.0046" cy="-258.8745" rx="71.4873" ry="18"/>
<text text-anchor="middle" x="920.0046" y="-255.1745" font-family="Times,serif" font-size="14.00" fill="#000000">ball_cradling</text>
</g>
<!-- ball_cradling&#45;&gt;ball_fondling -->
<g id="edge8" class="edge">
<title>ball_cradling&#45;&gt;ball_fondling</title>
<path fill="none" stroke="#000000" d="M960.807,-243.9588C1012.7778,-224.9603 1102.5684,-192.1364 1158.7337,-171.6046"/>
<polygon fill="#000000" stroke="#000000" points="1160.2809,-174.7656 1168.4713,-168.0449 1157.8775,-168.1911 1160.2809,-174.7656"/>
</g>
<!-- caressing_testicles -->
<g id="node11" class="node">
<title>caressing_testicles</title>
<ellipse fill="none" stroke="#000000" stroke-width="0" cx="1386.6428" cy="-108.4757" rx="100.1823" ry="18"/>
<text text-anchor="middle" x="1386.6428" y="-104.7757" font-family="Times,serif" font-size="14.00" fill="#000000">caressing_testicles</text>
</g>
<!-- caressing_testicles&#45;&gt;ball_fondling -->
<g id="edge9" class="edge">
<title>caressing_testicles&#45;&gt;ball_fondling</title>
<path fill="none" stroke="#000000" d="M1328.0054,-123.2457C1309.1653,-127.9913 1288.2699,-133.2546 1269.3161,-138.0288"/>
<polygon fill="#000000" stroke="#000000" points="1268.4448,-134.6389 1259.6026,-140.4755 1270.1546,-141.4269 1268.4448,-134.6389"/>
</g>
<!-- fondling_balls -->
<g id="node12" class="node">
<title>fondling_balls</title>
<ellipse fill="none" stroke="#000000" stroke-width="0" cx="1425.3677" cy="-170.7086" rx="75.2868" ry="18"/>
<text text-anchor="middle" x="1425.3677" y="-167.0086" font-family="Times,serif" font-size="14.00" fill="#000000">fondling_balls</text>
</g>
<!-- fondling_balls&#45;&gt;ball_fondling -->
<g id="edge10" class="edge">
<title>fondling_balls&#45;&gt;ball_fondling</title>
<path fill="none" stroke="#000000" d="M1353.943,-164.9288C1332.4844,-163.1923 1308.837,-161.2787 1286.9809,-159.5101"/>
<polygon fill="#000000" stroke="#000000" points="1286.9972,-156 1276.7474,-158.682 1286.4325,-162.9772 1286.9972,-156"/>
</g>
<!-- rubbing_balls -->
<g id="node13" class="node">
<title>rubbing_balls</title>
<ellipse fill="none" stroke="#000000" stroke-width="0" cx="1073.6269" cy="-286.2158" rx="74.187" ry="18"/>
<text text-anchor="middle" x="1073.6269" y="-282.5158" font-family="Times,serif" font-size="14.00" fill="#000000">rubbing_balls</text>
</g>
<!-- rubbing_balls&#45;&gt;ball_fondling -->
<g id="edge11" class="edge">
<title>rubbing_balls&#45;&gt;ball_fondling</title>
<path fill="none" stroke="#000000" d="M1091.6122,-268.553C1115.2906,-245.2991 1157.0487,-204.2898 1183.8662,-177.9532"/>
<polygon fill="#000000" stroke="#000000" points="1186.3241,-180.4449 1191.0064,-170.9409 1181.4193,-175.4506 1186.3241,-180.4449"/>
</g>
<!-- ball_grab -->
<g id="node14" class="node">
<title>ball_grab</title>
<g id="a_node14"><a xlink:href="https://e621.net/wiki/show/ball_grab" xlink:title="ball_grab">
<ellipse fill="#ffffff" stroke="#ffffff" cx="1250.1116" cy="-374.3072" rx="53.8905" ry="18"/>
<text text-anchor="middle" x="1250.1116" y="-370.6072" font-family="Times,serif" font-size="14.00" fill="#000000">ball_grab</text>
</a>
</g>
</g>
<!-- ball_grab&#45;&gt;balls -->
<g id="edge16" class="edge">
<title>ball_grab&#45;&gt;balls</title>
<path fill="none" stroke="#000000" stroke-width="2" d="M1197.1839,-378.4065C1116.0806,-384.6881 962.6373,-396.5725 888.0765,-402.3473"/>
<polygon fill="#000000" stroke="#000000" stroke-width="2" points="887.3659,-398.8918 877.666,-403.1536 887.9065,-405.8709 887.3659,-398.8918"/>
</g>
<!-- ballcaress -->
<g id="node15" class="node">
<title>ballcaress</title>
<ellipse fill="none" stroke="#000000" stroke-width="0" cx="1141.602" cy="-330.2641" rx="57.6901" ry="18"/>
<text text-anchor="middle" x="1141.602" y="-326.5641" font-family="Times,serif" font-size="14.00" fill="#000000">ballcaress</text>
</g>
<!-- ballcaress&#45;&gt;ball_grab -->
<g id="edge13" class="edge">
<title>ballcaress&#45;&gt;ball_grab</title>
<path fill="none" stroke="#000000" d="M1176.8319,-344.5636C1186.3049,-348.4086 1196.6638,-352.6132 1206.5321,-356.6187"/>
<polygon fill="#000000" stroke="#000000" points="1205.2161,-359.8618 1215.7983,-360.3797 1207.8488,-353.3757 1205.2161,-359.8618"/>
</g>
<!-- cupping_balls -->
<g id="node16" class="node">
<title>cupping_balls</title>
<ellipse fill="none" stroke="#000000" stroke-width="0" cx="1442.8279" cy="-323.1408" rx="75.2868" ry="18"/>
<text text-anchor="middle" x="1442.8279" y="-319.4408" font-family="Times,serif" font-size="14.00" fill="#000000">cupping_balls</text>
</g>
<!-- cupping_balls&#45;&gt;ball_grab -->
<g id="edge14" class="edge">
<title>cupping_balls&#45;&gt;ball_grab</title>
<path fill="none" stroke="#000000" d="M1392.1939,-336.5842C1364.5821,-343.9152 1330.4494,-352.9774 1302.5595,-360.3822"/>
<polygon fill="#000000" stroke="#000000" points="1301.3574,-357.0801 1292.5904,-363.029 1303.1537,-363.8457 1301.3574,-357.0801"/>
</g>
<!-- grabbing_balls -->
<g id="node17" class="node">
<title>grabbing_balls</title>
<ellipse fill="none" stroke="#000000" stroke-width="0" cx="1189.1946" cy="-418.3079" rx="79.0865" ry="18"/>
<text text-anchor="middle" x="1189.1946" y="-414.6079" font-family="Times,serif" font-size="14.00" fill="#000000">grabbing_balls</text>
</g>
<!-- grabbing_balls&#45;&gt;ball_grab -->
<g id="edge15" class="edge">
<title>grabbing_balls&#45;&gt;ball_grab</title>
<path fill="none" stroke="#000000" d="M1213.2706,-400.9177C1215.1621,-399.5515 1217.0879,-398.1604 1219.0172,-396.7669"/>
<polygon fill="#000000" stroke="#000000" points="1221.3442,-399.4037 1227.4013,-390.711 1217.2454,-393.7291 1221.3442,-399.4037"/>
</g>
<!-- barely_visible_balls -->
<g id="node18" class="node">
<title>barely_visible_balls</title>
<g id="a_node18"><a xlink:href="https://e621.net/wiki/show/barely_visible_balls" xlink:title="barely_visible_balls">
<ellipse fill="#ffffff" stroke="#ffffff" cx="1147.2095" cy="-462.3162" rx="102.0819" ry="18"/>
<text text-anchor="middle" x="1147.2095" y="-458.6162" font-family="Times,serif" font-size="14.00" fill="#000000">barely_visible_balls</text>
</a>
</g>
</g>
<!-- barely_visible_balls&#45;&gt;balls -->
<g id="edge18" class="edge">
<title>barely_visible_balls&#45;&gt;balls</title>
<path fill="none" stroke="#000000" stroke-width="2" d="M1077.1765,-449.1766C1017.9721,-438.0687 935.1904,-422.5371 886.2107,-413.3476"/>
<polygon fill="#000000" stroke="#000000" stroke-width="2" points="886.7666,-409.8909 876.2927,-411.4867 885.4757,-416.7708 886.7666,-409.8909"/>
</g>
<!-- subtle_balls -->
<g id="node19" class="node">
<title>subtle_balls</title>
<ellipse fill="none" stroke="#000000" stroke-width="0" cx="1323.7597" cy="-462.3293" rx="66.0889" ry="18"/>
<text text-anchor="middle" x="1323.7597" y="-458.6293" font-family="Times,serif" font-size="14.00" fill="#000000">subtle_balls</text>
</g>
<!-- subtle_balls&#45;&gt;barely_visible_balls -->
<g id="edge17" class="edge">
<title>subtle_balls&#45;&gt;barely_visible_balls</title>
<path fill="none" stroke="#000000" d="M1257.2652,-462.3244C1257.1002,-462.3244 1256.9352,-462.3244 1256.77,-462.3243"/>
<polygon fill="#000000" stroke="#000000" points="1259.2751,-458.8247 1249.2748,-462.3238 1259.2745,-465.8247 1259.2751,-458.8247"/>
</g>
<!-- big_balls -->
<g id="node20" class="node">
<title>big_balls</title>
<g id="a_node20"><a xlink:href="https://e621.net/wiki/show/big_balls" xlink:title="big_balls">
<ellipse fill="#ffffff" stroke="#ffffff" cx="1110.1028" cy="-550.8595" rx="51.9908" ry="18"/>
<text text-anchor="middle" x="1110.1028" y="-547.1595" font-family="Times,serif" font-size="14.00" fill="#000000">big_balls</text>
</a>
</g>
</g>
<!-- big_balls&#45;&gt;balls -->
<g id="edge21" class="edge">
<title>big_balls&#45;&gt;balls</title>
<path fill="none" stroke="#000000" stroke-width="2" d="M1082.2602,-535.5955C1032.772,-508.4647 929.783,-452.0033 877.3801,-423.2747"/>
<polygon fill="#000000" stroke="#000000" stroke-width="2" points="878.962,-420.1505 868.5107,-418.4122 875.5969,-426.2886 878.962,-420.1505"/>
</g>
<!-- large_balls -->
<g id="node21" class="node">
<title>large_balls</title>
<ellipse fill="none" stroke="#000000" stroke-width="0" cx="1188.941" cy="-506.4542" rx="61.99" ry="18"/>
<text text-anchor="middle" x="1188.941" y="-502.7542" font-family="Times,serif" font-size="14.00" fill="#000000">large_balls</text>
</g>
<!-- large_balls&#45;&gt;big_balls -->
<g id="edge19" class="edge">
<title>large_balls&#45;&gt;big_balls</title>
<path fill="none" stroke="#000000" d="M1160.4786,-522.4856C1155.9095,-525.0591 1151.1271,-527.7528 1146.4047,-530.4127"/>
<polygon fill="#000000" stroke="#000000" points="1144.4645,-527.4884 1137.4692,-535.4456 1147.8998,-533.5875 1144.4645,-527.4884"/>
</g>
<!-- large_testicles -->
<g id="node22" class="node">
<title>large_testicles</title>
<ellipse fill="none" stroke="#000000" stroke-width="0" cx="1250.2076" cy="-616.7266" rx="79.0865" ry="18"/>
<text text-anchor="middle" x="1250.2076" y="-613.0266" font-family="Times,serif" font-size="14.00" fill="#000000">large_testicles</text>
</g>
<!-- large_testicles&#45;&gt;big_balls -->
<g id="edge20" class="edge">
<title>large_testicles&#45;&gt;big_balls</title>
<path fill="none" stroke="#000000" d="M1215.5749,-600.4449C1195.7585,-591.1286 1170.8105,-579.3999 1150.1536,-569.6885"/>
<polygon fill="#000000" stroke="#000000" points="1151.5374,-566.4716 1140.9985,-565.3844 1148.5591,-572.8065 1151.5374,-566.4716"/>
</g>
<!-- black_balls -->
<g id="node23" class="node">
<title>black_balls</title>
<g id="a_node23"><a xlink:href="https://e621.net/wiki/show/black_balls" xlink:title="black_balls">
<ellipse fill="#ffffff" stroke="#ffffff" cx="929.1909" cy="-615.2498" rx="63.0888" ry="18"/>
<text text-anchor="middle" x="929.1909" y="-611.5498" font-family="Times,serif" font-size="14.00" fill="#000000">black_balls</text>
</a>
</g>
</g>
<!-- black_balls&#45;&gt;balls -->
<g id="edge22" class="edge">
<title>black_balls&#45;&gt;balls</title>
<path fill="none" stroke="#000000" stroke-width="2" d="M921.8891,-597.017C907.0884,-560.0591 873.4857,-476.1524 856.1113,-432.768"/>
<polygon fill="#000000" stroke="#000000" stroke-width="2" points="859.33,-431.3907 852.3631,-423.4087 852.8318,-433.9931 859.33,-431.3907"/>
</g>
<!-- blue_balls -->
<g id="node24" class="node">
<title>blue_balls</title>
<g id="a_node24"><a xlink:href="https://e621.net/wiki/show/blue_balls" xlink:title="blue_balls">
<ellipse fill="#ffffff" stroke="#ffffff" cx="860.1859" cy="-571.2085" rx="57.6901" ry="18"/>
<text text-anchor="middle" x="860.1859" y="-567.5085" font-family="Times,serif" font-size="14.00" fill="#000000">blue_balls</text>
</a>
</g>
</g>
<!-- blue_balls&#45;&gt;balls -->
<g id="edge23" class="edge">
<title>blue_balls&#45;&gt;balls</title>
<path fill="none" stroke="#000000" stroke-width="2" d="M858.5598,-553.1771C855.9684,-524.4429 850.8814,-468.0347 847.8037,-433.907"/>
<polygon fill="#000000" stroke="#000000" stroke-width="2" points="851.2649,-433.318 846.8808,-423.6728 844.2932,-433.9468 851.2649,-433.318"/>
</g>
<!-- bouncing_balls -->
<g id="node25" class="node">
<title>bouncing_balls</title>
<g id="a_node25"><a xlink:href="https://e621.net/wiki/show/bouncing_balls" xlink:title="bouncing_balls">
<ellipse fill="#ffffff" stroke="#ffffff" cx="812.0736" cy="-505.8594" rx="80.6858" ry="18"/>
<text text-anchor="middle" x="812.0736" y="-502.1594" font-family="Times,serif" font-size="14.00" fill="#000000">bouncing_balls</text>
</a>
</g>
</g>
<!-- bouncing_balls&#45;&gt;balls -->
<g id="edge25" class="edge">
<title>bouncing_balls&#45;&gt;balls</title>
<path fill="none" stroke="#000000" stroke-width="2" d="M818.1599,-487.4819C823.1962,-472.275 830.4263,-450.4438 836.1515,-433.1566"/>
<polygon fill="#000000" stroke="#000000" stroke-width="2" points="839.4992,-434.1809 839.3206,-423.5876 832.8541,-431.9801 839.4992,-434.1809"/>
</g>
<!-- swinging_balls -->
<g id="node26" class="node">
<title>swinging_balls</title>
<ellipse fill="none" stroke="#000000" stroke-width="0" cx="713.5665" cy="-549.9372" rx="79.0865" ry="18"/>
<text text-anchor="middle" x="713.5665" y="-546.2372" font-family="Times,serif" font-size="14.00" fill="#000000">swinging_balls</text>
</g>
<!-- swinging_balls&#45;&gt;bouncing_balls -->
<g id="edge24" class="edge">
<title>swinging_balls&#45;&gt;bouncing_balls</title>
<path fill="none" stroke="#000000" d="M749.6876,-533.7745C755.1751,-531.3191 760.8973,-528.7586 766.5534,-526.2277"/>
<polygon fill="#000000" stroke="#000000" points="768.2586,-529.2992 775.9569,-522.0201 765.3995,-522.9097 768.2586,-529.2992"/>
</g>
<!-- brown_balls -->
<g id="node27" class="node">
<title>brown_balls</title>
<g id="a_node27"><a xlink:href="https://e621.net/wiki/show/brown_balls" xlink:title="brown_balls">
<ellipse fill="#ffffff" stroke="#ffffff" cx="656.4693" cy="-464.2187" rx="66.8882" ry="18"/>
<text text-anchor="middle" x="656.4693" y="-460.5187" font-family="Times,serif" font-size="14.00" fill="#000000">brown_balls</text>
</a>
</g>
</g>
<!-- brown_balls&#45;&gt;balls -->
<g id="edge26" class="edge">
<title>brown_balls&#45;&gt;balls</title>
<path fill="none" stroke="#000000" stroke-width="2" d="M700.7316,-450.4902C732.9457,-440.4985 776.1337,-427.1032 806.888,-417.5643"/>
<polygon fill="#000000" stroke="#000000" stroke-width="2" points="808.293,-420.7931 816.8073,-414.4877 806.2193,-414.1073 808.293,-420.7931"/>
</g>
<!-- cum_on_balls -->
<g id="node28" class="node">
<title>cum_on_balls</title>
<g id="a_node28"><a xlink:href="https://e621.net/wiki/show/cum_on_balls" xlink:title="cum_on_balls">
<ellipse fill="#ffffff" stroke="#ffffff" cx="631.3233" cy="-420.1811" rx="73.387" ry="18"/>
<text text-anchor="middle" x="631.3233" y="-416.4811" font-family="Times,serif" font-size="14.00" fill="#000000">cum_on_balls</text>
</a>
</g>
</g>
<!-- cum_on_balls&#45;&gt;balls -->
<g id="edge27" class="edge">
<title>cum_on_balls&#45;&gt;balls</title>
<path fill="none" stroke="#000000" stroke-width="2" d="M702.2628,-415.3672C735.5189,-413.1105 774.0354,-410.4968 802.7097,-408.551"/>
<polygon fill="#000000" stroke="#000000" stroke-width="2" points="803.0606,-412.0353 812.8007,-407.8662 802.5866,-405.0514 803.0606,-412.0353"/>
</g>
<!-- green_balls -->
<g id="node29" class="node">
<title>green_balls</title>
<g id="a_node29"><a xlink:href="https://e621.net/wiki/show/green_balls" xlink:title="green_balls">
<ellipse fill="#ffffff" stroke="#ffffff" cx="622.9833" cy="-376.1798" rx="64.189" ry="18"/>
<text text-anchor="middle" x="622.9833" y="-372.4798" font-family="Times,serif" font-size="14.00" fill="#000000">green_balls</text>
</a>
</g>
</g>
<!-- green_balls&#45;&gt;balls -->
<g id="edge28" class="edge">
<title>green_balls&#45;&gt;balls</title>
<path fill="none" stroke="#000000" stroke-width="2" d="M681.383,-383.9264C719.7332,-389.0134 768.9901,-395.5472 803.4458,-400.1177"/>
<polygon fill="#000000" stroke="#000000" stroke-width="2" points="803.2619,-403.6238 813.6353,-401.4693 804.1824,-396.6846 803.2619,-403.6238"/>
</g>
<!-- grey_balls -->
<g id="node30" class="node">
<title>grey_balls</title>
<g id="a_node30"><a xlink:href="https://e621.net/wiki/show/grey_balls" xlink:title="grey_balls">
<ellipse fill="#ffffff" stroke="#ffffff" cx="638.6717" cy="-332.135" rx="58.4896" ry="18"/>
<text text-anchor="middle" x="638.6717" y="-328.435" font-family="Times,serif" font-size="14.00" fill="#000000">grey_balls</text>
</a>
</g>
</g>
<!-- grey_balls&#45;&gt;balls -->
<g id="edge30" class="edge">
<title>grey_balls&#45;&gt;balls</title>
<path fill="none" stroke="#000000" stroke-width="2" d="M677.0446,-345.7929C714.5343,-359.1364 771.2114,-379.3092 808.2324,-392.4859"/>
<polygon fill="#000000" stroke="#000000" stroke-width="2" points="807.0639,-395.785 817.6586,-395.8409 809.4111,-389.1903 807.0639,-395.785"/>
</g>
<!-- gray_balls -->
<g id="node31" class="node">
<title>gray_balls</title>
<ellipse fill="none" stroke="#000000" stroke-width="0" cx="438.1213" cy="-350.0944" rx="58.4896" ry="18"/>
<text text-anchor="middle" x="438.1213" y="-346.3944" font-family="Times,serif" font-size="14.00" fill="#000000">gray_balls</text>
</g>
<!-- gray_balls&#45;&gt;grey_balls -->
<g id="edge29" class="edge">
<title>gray_balls&#45;&gt;grey_balls</title>
<path fill="none" stroke="#000000" d="M494.5195,-345.0439C518.6522,-342.8828 547.0083,-340.3435 572.157,-338.0914"/>
<polygon fill="#000000" stroke="#000000" points="572.7018,-341.5567 582.3497,-337.1787 572.0774,-334.5846 572.7018,-341.5567"/>
</g>
<!-- holding_balls -->
<g id="node32" class="node">
<title>holding_balls</title>
<g id="a_node32"><a xlink:href="https://e621.net/wiki/show/holding_balls" xlink:title="holding_balls">
<ellipse fill="#ffffff" stroke="#ffffff" cx="455.0997" cy="-306.0755" rx="72.2875" ry="18"/>
<text text-anchor="middle" x="455.0997" y="-302.3755" font-family="Times,serif" font-size="14.00" fill="#000000">holding_balls</text>
</a>
</g>
</g>
<!-- holding_balls&#45;&gt;balls -->
<g id="edge31" class="edge">
<title>holding_balls&#45;&gt;balls</title>
<path fill="none" stroke="#000000" stroke-width="2" d="M505.7059,-318.9928C584.3141,-339.0577 734.1259,-377.2974 805.5147,-395.5195"/>
<polygon fill="#000000" stroke="#000000" stroke-width="2" points="804.9057,-398.9762 815.4607,-398.0583 806.637,-392.1937 804.9057,-398.9762"/>
</g>
<!-- multi_balls -->
<g id="node33" class="node">
<title>multi_balls</title>
<g id="a_node33"><a xlink:href="https://e621.net/wiki/show/multi_balls" xlink:title="multi_balls">
<ellipse fill="#ffffff" stroke="#ffffff" cx="473.0853" cy="-228.9689" rx="61.99" ry="18"/>
<text text-anchor="middle" x="473.0853" y="-225.2689" font-family="Times,serif" font-size="14.00" fill="#000000">multi_balls</text>
</a>
</g>
</g>
<!-- multi_balls&#45;&gt;balls -->
<g id="edge34" class="edge">
<title>multi_balls&#45;&gt;balls</title>
<path fill="none" stroke="#000000" stroke-width="2" d="M505.462,-244.3403C575.3625,-277.5268 739.8412,-355.6159 811.2157,-389.5022"/>
<polygon fill="#000000" stroke="#000000" stroke-width="2" points="809.7146,-392.6639 820.2494,-393.7911 812.7169,-386.3404 809.7146,-392.6639"/>
</g>
<!-- polyorchid -->
<g id="node34" class="node">
<title>polyorchid</title>
<ellipse fill="none" stroke="#000000" stroke-width="0" cx="619.7926" cy="-264.3049" rx="59.5901" ry="18"/>
<text text-anchor="middle" x="619.7926" y="-260.6049" font-family="Times,serif" font-size="14.00" fill="#ff0000">polyorchid</text>
</g>
<!-- polyorchid&#45;&gt;multi_balls -->
<g id="edge32" class="edge">
<title>polyorchid&#45;&gt;multi_balls</title>
<path fill="none" stroke="#ff0000" stroke-dasharray="1,5" d="M572.9701,-253.0272C559.5418,-249.7929 544.7426,-246.2283 530.7435,-242.8565"/>
<polygon fill="#ff0000" stroke="#ff0000" points="531.264,-239.3819 520.7225,-240.4428 529.6248,-246.1872 531.264,-239.3819"/>
</g>
<!-- multi_ball -->
<g id="node35" class="node">
<title>multi_ball</title>
<ellipse fill="none" stroke="#000000" stroke-width="0" cx="345.8859" cy="-262.0505" rx="57.3905" ry="18"/>
<text text-anchor="middle" x="345.8859" y="-258.3505" font-family="Times,serif" font-size="14.00" fill="#000000">multi_ball</text>
</g>
<!-- multi_ball&#45;&gt;multi_balls -->
<g id="edge33" class="edge">
<title>multi_ball&#45;&gt;multi_balls</title>
<path fill="none" stroke="#000000" d="M390.0171,-250.573C398.7644,-248.298 408.0555,-245.8816 417.1355,-243.5201"/>
<polygon fill="#000000" stroke="#000000" points="418.0726,-246.8929 426.8697,-240.9885 416.3106,-240.1183 418.0726,-246.8929"/>
</g>
<!-- orange_balls -->
<g id="node36" class="node">
<title>orange_balls</title>
<g id="a_node36"><a xlink:href="https://e621.net/wiki/show/orange_balls" xlink:title="orange_balls">
<ellipse fill="#ffffff" stroke="#ffffff" cx="545.7839" cy="-182.247" rx="69.5877" ry="18"/>
<text text-anchor="middle" x="545.7839" y="-178.547" font-family="Times,serif" font-size="14.00" fill="#000000">orange_balls</text>
</a>
</g>
</g>
<!-- orange_balls&#45;&gt;balls -->
<g id="edge35" class="edge">
<title>orange_balls&#45;&gt;balls</title>
<path fill="none" stroke="#000000" stroke-width="2" d="M568.7858,-199.4072C623.0918,-239.9213 759.0915,-341.3816 817.6871,-385.0959"/>
<polygon fill="#000000" stroke="#000000" stroke-width="2" points="815.6437,-387.9381 825.7518,-391.1125 819.8294,-382.3274 815.6437,-387.9381"/>
</g>
<!-- purple_balls -->
<g id="node37" class="node">
<title>purple_balls</title>
<g id="a_node37"><a xlink:href="https://e621.net/wiki/show/purple_balls" xlink:title="purple_balls">
<ellipse fill="#ffffff" stroke="#ffffff" cx="602.0383" cy="-138.1551" rx="67.6881" ry="18"/>
<text text-anchor="middle" x="602.0383" y="-134.4551" font-family="Times,serif" font-size="14.00" fill="#000000">purple_balls</text>
</a>
</g>
</g>
<!-- purple_balls&#45;&gt;balls -->
<g id="edge36" class="edge">
<title>purple_balls&#45;&gt;balls</title>
<path fill="none" stroke="#000000" stroke-width="2" d="M617.9965,-155.7071C660.3165,-202.2536 775.4545,-328.8904 823.6189,-381.865"/>
<polygon fill="#000000" stroke="#000000" stroke-width="2" points="821.1711,-384.3756 830.488,-389.4201 826.3504,-379.6666 821.1711,-384.3756"/>
</g>
<!-- red_balls -->
<g id="node38" class="node">
<title>red_balls</title>
<g id="a_node38"><a xlink:href="https://e621.net/wiki/show/red_balls" xlink:title="red_balls">
<ellipse fill="#ffffff" stroke="#ffffff" cx="938.4003" cy="-86.6442" rx="53.0913" ry="18"/>
<text text-anchor="middle" x="938.4003" y="-82.9442" font-family="Times,serif" font-size="14.00" fill="#000000">red_balls</text>
</a>
</g>
</g>
<!-- red_balls&#45;&gt;balls -->
<g id="edge37" class="edge">
<title>red_balls&#45;&gt;balls</title>
<path fill="none" stroke="#000000" stroke-width="2" d="M933.1257,-104.7101C917.5959,-157.9 871.9627,-314.1949 853.3253,-378.0285"/>
<polygon fill="#000000" stroke="#000000" stroke-width="2" points="849.9165,-377.2158 850.4735,-387.796 856.636,-379.1777 849.9165,-377.2158"/>
</g>
<!-- saggy_balls -->
<g id="node39" class="node">
<title>saggy_balls</title>
<g id="a_node39"><a xlink:href="https://e621.net/wiki/show/saggy_balls" xlink:title="saggy_balls">
<ellipse fill="#ffffff" stroke="#ffffff" cx="1065.0585" cy="-109.4205" rx="64.9885" ry="18"/>
<text text-anchor="middle" x="1065.0585" y="-105.7205" font-family="Times,serif" font-size="14.00" fill="#000000">saggy_balls</text>
</a>
</g>
</g>
<!-- saggy_balls&#45;&gt;balls -->
<g id="edge42" class="edge">
<title>saggy_balls&#45;&gt;balls</title>
<path fill="none" stroke="#000000" stroke-width="2" d="M1051.9672,-127.0647C1014.6064,-177.4186 907.3817,-321.9333 863.9049,-380.5302"/>
<polygon fill="#000000" stroke="#000000" stroke-width="2" points="860.8792,-378.7343 857.7313,-388.8507 866.5008,-382.9054 860.8792,-378.7343"/>
</g>
<!-- hanging_balls -->
<g id="node40" class="node">
<title>hanging_balls</title>
<ellipse fill="none" stroke="#000000" stroke-width="0" cx="795.1319" cy="-193.9453" rx="75.2868" ry="18"/>
<text text-anchor="middle" x="795.1319" y="-190.2453" font-family="Times,serif" font-size="14.00" fill="#000000">hanging_balls</text>
</g>
<!-- hanging_balls&#45;&gt;saggy_balls -->
<g id="edge38" class="edge">
<title>hanging_balls&#45;&gt;saggy_balls</title>
<path fill="none" stroke="#000000" d="M840.9212,-179.6068C888.3012,-164.7703 962.2206,-141.6232 1012.0895,-126.0072"/>
<polygon fill="#000000" stroke="#000000" points="1013.2305,-129.3176 1021.7276,-122.9892 1011.1386,-122.6375 1013.2305,-129.3176"/>
</g>
<!-- lowhangers -->
<g id="node41" class="node">
<title>lowhangers</title>
<ellipse fill="none" stroke="#000000" stroke-width="0" cx="1114.6874" cy="-18" rx="64.189" ry="18"/>
<text text-anchor="middle" x="1114.6874" y="-14.3" font-family="Times,serif" font-size="14.00" fill="#000000">lowhangers</text>
</g>
<!-- lowhangers&#45;&gt;saggy_balls -->
<g id="edge39" class="edge">
<title>lowhangers&#45;&gt;saggy_balls</title>
<path fill="none" stroke="#000000" d="M1104.8823,-36.0618C1097.6771,-49.3343 1087.7676,-67.5886 1079.6363,-82.5671"/>
<polygon fill="#000000" stroke="#000000" points="1076.5383,-80.9379 1074.8432,-91.3963 1082.6902,-84.2776 1076.5383,-80.9379"/>
</g>
<!-- low_hangers -->
<g id="node42" class="node">
<title>low_hangers</title>
<ellipse fill="none" stroke="#000000" stroke-width="0" cx="1207.7129" cy="-77.1337" rx="69.5877" ry="18"/>
<text text-anchor="middle" x="1207.7129" y="-73.4337" font-family="Times,serif" font-size="14.00" fill="#000000">low_hangers</text>
</g>
<!-- low_hangers&#45;&gt;saggy_balls -->
<g id="edge40" class="edge">
<title>low_hangers&#45;&gt;saggy_balls</title>
<path fill="none" stroke="#000000" d="M1154.999,-89.0644C1145.4561,-91.2242 1135.4353,-93.4922 1125.6873,-95.6985"/>
<polygon fill="#000000" stroke="#000000" points="1124.6397,-92.347 1115.659,-97.9682 1126.185,-99.1743 1124.6397,-92.347"/>
</g>
<!-- sagging_balls -->
<g id="node43" class="node">
<title>sagging_balls</title>
<ellipse fill="none" stroke="#000000" stroke-width="0" cx="952.6618" cy="-214.8312" rx="74.187" ry="18"/>
<text text-anchor="middle" x="952.6618" y="-211.1312" font-family="Times,serif" font-size="14.00" fill="#000000">sagging_balls</text>
</g>
<!-- sagging_balls&#45;&gt;saggy_balls -->
<g id="edge41" class="edge">
<title>sagging_balls&#45;&gt;saggy_balls</title>
<path fill="none" stroke="#000000" d="M971.4745,-197.1878C989.9828,-179.8299 1018.3922,-153.1863 1039.0553,-133.8076"/>
<polygon fill="#000000" stroke="#000000" points="1041.6587,-136.1644 1046.5585,-126.7707 1036.8701,-131.0585 1041.6587,-136.1644"/>
</g>
<!-- small_balls&#45;&gt;balls -->
<g id="edge43" class="edge">
<title>small_balls&#45;&gt;balls</title>
<path fill="none" stroke="#000000" stroke-width="2" d="M828.3155,-329.3838C831.3351,-342.9801 835.5176,-361.8122 838.9712,-377.3625"/>
<polygon fill="#000000" stroke="#000000" stroke-width="2" points="835.6375,-378.4957 841.2224,-387.499 842.471,-376.978 835.6375,-378.4957"/>
</g>
<!-- tan_balls -->
<g id="node45" class="node">
<title>tan_balls</title>
<g id="a_node45"><a xlink:href="https://e621.net/wiki/show/tan_balls" xlink:title="tan_balls">
<ellipse fill="#ffffff" stroke="#ffffff" cx="1235.3955" cy="-198.2118" rx="52.7911" ry="18"/>
<text text-anchor="middle" x="1235.3955" y="-194.5118" font-family="Times,serif" font-size="14.00" fill="#000000">tan_balls</text>
</a>
</g>
</g>
<!-- tan_balls&#45;&gt;balls -->
<g id="edge44" class="edge">
<title>tan_balls&#45;&gt;balls</title>
<path fill="none" stroke="#000000" stroke-width="2" d="M1206.7076,-213.4662C1135.8307,-251.1542 952.7848,-348.4869 877.911,-388.3002"/>
<polygon fill="#000000" stroke="#000000" stroke-width="2" points="876.101,-385.2985 868.9148,-393.0838 879.3874,-391.4791 876.101,-385.2985"/>
</g>
<!-- uniball -->
<g id="node46" class="node">
<title>uniball</title>
<g id="a_node46"><a xlink:href="https://e621.net/wiki/show/uniball" xlink:title="uniball">
<ellipse fill="#ffffff" stroke="#ffffff" cx="1268.2914" cy="-242.2321" rx="42.4939" ry="18"/>
<text text-anchor="middle" x="1268.2914" y="-238.5321" font-family="Times,serif" font-size="14.00" fill="#000000">uniball</text>
</a>
</g>
</g>
<!-- uniball&#45;&gt;balls -->
<g id="edge45" class="edge">
<title>uniball&#45;&gt;balls</title>
<path fill="none" stroke="#000000" stroke-width="2" d="M1236.8407,-254.3825C1159.9273,-284.0965 962.6874,-360.2966 881.2544,-391.7567"/>
<polygon fill="#000000" stroke="#000000" stroke-width="2" points="879.9803,-388.4967 871.9135,-395.3654 882.5029,-395.0264 879.9803,-388.4967"/>
</g>
<!-- white_balls -->
<g id="node47" class="node">
<title>white_balls</title>
<g id="a_node47"><a xlink:href="https://e621.net/wiki/show/white_balls" xlink:title="white_balls">
<ellipse fill="#ffffff" stroke="#ffffff" cx="1287.7986" cy="-286.275" rx="63.8893" ry="18"/>
<text text-anchor="middle" x="1287.7986" y="-282.575" font-family="Times,serif" font-size="14.00" fill="#000000">white_balls</text>
</a>
</g>
</g>
<!-- white_balls&#45;&gt;balls -->
<g id="edge46" class="edge">
<title>white_balls&#45;&gt;balls</title>
<path fill="none" stroke="#000000" stroke-width="2" d="M1241.6912,-298.7138C1154.3302,-322.282 966.1337,-373.0536 884.4356,-395.0941"/>
<polygon fill="#000000" stroke="#000000" stroke-width="2" points="883.2968,-391.7761 874.5537,-397.76 885.1202,-398.5345 883.2968,-391.7761"/>
</g>
<!-- yellow_balls -->
<g id="node48" class="node">
<title>yellow_balls</title>
<g id="a_node48"><a xlink:href="https://e621.net/wiki/show/yellow_balls" xlink:title="yellow_balls">
<ellipse fill="#ffffff" stroke="#ffffff" cx="1285.1181" cy="-330.2804" rx="67.6881" ry="18"/>
<text text-anchor="middle" x="1285.1181" y="-326.5804" font-family="Times,serif" font-size="14.00" fill="#000000">yellow_balls</text>
</a>
</g>
</g>
<!-- yellow_balls&#45;&gt;balls -->
<g id="edge47" class="edge">
<title>yellow_balls&#45;&gt;balls</title>
<path fill="none" stroke="#000000" stroke-width="2" d="M1228.0648,-340.0582C1138.078,-355.4801 965.3259,-385.0863 886.4081,-398.6112"/>
<polygon fill="#000000" stroke="#000000" stroke-width="2" points="885.6269,-395.194 876.3618,-400.333 886.8093,-402.0934 885.6269,-395.194"/>
</g>
<!-- 3_balls -->
<g id="node49" class="node">
<title>3_balls</title>
<g id="a_node49"><a xlink:href="https://e621.net/wiki/show/3_balls" xlink:title="3_balls">
<ellipse fill="#ffffff" stroke="#ffffff" cx="424.5852" cy="-184.9368" rx="43.5923" ry="18"/>
<text text-anchor="middle" x="424.5852" y="-181.2368" font-family="Times,serif" font-size="14.00" fill="#000000">3_balls</text>
</a>
</g>
</g>
<!-- 3_balls&#45;&gt;multi_balls -->
<g id="edge50" class="edge">
<title>3_balls&#45;&gt;multi_balls</title>
<path fill="none" stroke="#000000" stroke-width="2" d="M442.6448,-201.3327C443.9409,-202.5094 445.2623,-203.7091 446.5928,-204.917"/>
<polygon fill="#000000" stroke="#000000" stroke-width="2" points="444.4428,-207.6923 454.1993,-211.8228 449.1481,-202.5096 444.4428,-207.6923"/>
</g>
<!-- triple_balls -->
<g id="node50" class="node">
<title>triple_balls</title>
<ellipse fill="none" stroke="#000000" stroke-width="0" cx="462.4167" cy="-109.5993" rx="63.0888" ry="18"/>
<text text-anchor="middle" x="462.4167" y="-105.8993" font-family="Times,serif" font-size="14.00" fill="#000000">triple_balls</text>
</g>
<!-- triple_balls&#45;&gt;3_balls -->
<g id="edge49" class="edge">
<title>triple_balls&#45;&gt;3_balls</title>
<path fill="none" stroke="#000000" d="M453.4511,-127.4532C448.8339,-136.6479 443.111,-148.0446 437.9815,-158.2594"/>
<polygon fill="#000000" stroke="#000000" points="434.8462,-156.7038 433.4864,-167.211 441.1018,-159.8451 434.8462,-156.7038"/>
</g>
<!-- 4_balls -->
<g id="node51" class="node">
<title>4_balls</title>
<g id="a_node51"><a xlink:href="https://e621.net/wiki/show/4_balls" xlink:title="4_balls">
<ellipse fill="#ffffff" stroke="#ffffff" cx="666.9388" cy="-220.0819" rx="43.5923" ry="18"/>
<text text-anchor="middle" x="666.9388" y="-216.3819" font-family="Times,serif" font-size="14.00" fill="#000000">4_balls</text>
</a>
</g>
</g>
<!-- 4_balls&#45;&gt;multi_balls -->
<g id="edge51" class="edge">
<title>4_balls&#45;&gt;multi_balls</title>
<path fill="none" stroke="#000000" stroke-width="2" d="M623.4343,-222.0763C600.074,-223.1472 570.6931,-224.4942 544.1155,-225.7126"/>
<polygon fill="#000000" stroke="#000000" stroke-width="2" points="543.9142,-222.2181 534.085,-226.1724 544.2348,-229.2107 543.9142,-222.2181"/>
</g>
<!-- huge_balls -->
<g id="node52" class="node">
<title>huge_balls</title>
<g id="a_node52"><a xlink:href="https://e621.net/wiki/show/huge_balls" xlink:title="huge_balls">
<ellipse fill="#ffffff" stroke="#ffffff" cx="989.4876" cy="-560.0002" rx="60.3893" ry="18"/>
<text text-anchor="middle" x="989.4876" y="-556.3002" font-family="Times,serif" font-size="14.00" fill="#000000">huge_balls</text>
</a>
</g>
</g>
<!-- huge_balls&#45;&gt;big_balls -->
<g id="edge53" class="edge">
<title>huge_balls&#45;&gt;big_balls</title>
<path fill="none" stroke="#000000" stroke-width="2" d="M1048.3819,-555.537C1048.6061,-555.52 1048.8304,-555.503 1049.0547,-555.486"/>
<polygon fill="#000000" stroke="#000000" stroke-width="2" points="1049.4081,-558.9693 1059.115,-554.7236 1048.8791,-551.9894 1049.4081,-558.9693"/>
</g>
<!-- huge_testicles -->
<g id="node53" class="node">
<title>huge_testicles</title>
<ellipse fill="none" stroke="#000000" stroke-width="0" cx="1078.3868" cy="-646.2479" rx="77.9862" ry="18"/>
<text text-anchor="middle" x="1078.3868" y="-642.5479" font-family="Times,serif" font-size="14.00" fill="#000000">huge_testicles</text>
</g>
<!-- huge_testicles&#45;&gt;huge_balls -->
<g id="edge52" class="edge">
<title>huge_testicles&#45;&gt;huge_balls</title>
<path fill="none" stroke="#000000" d="M1059.9669,-628.3773C1046.8011,-615.6042 1028.9312,-598.2673 1014.4798,-584.247"/>
<polygon fill="#000000" stroke="#000000" points="1016.8918,-581.7105 1007.2774,-577.2594 1012.0176,-586.7347 1016.8918,-581.7105"/>
</g>
<!-- hyper_balls -->
<g id="node54" class="node">
<title>hyper_balls</title>
<g id="a_node54"><a xlink:href="https://e621.net/wiki/show/hyper_balls" xlink:title="hyper_balls">
<ellipse fill="#ffffff" stroke="#ffffff" cx="981.9982" cy="-506.3319" rx="64.189" ry="18"/>
<text text-anchor="middle" x="981.9982" y="-502.6319" font-family="Times,serif" font-size="14.00" fill="#000000">hyper_balls</text>
</a>
</g>
</g>
<!-- hyper_balls&#45;&gt;huge_balls -->
<g id="edge55" class="edge">
<title>hyper_balls&#45;&gt;huge_balls</title>
<path fill="none" stroke="#000000" stroke-width="2" d="M984.5338,-524.5015C984.8632,-526.8621 985.2066,-529.3228 985.5521,-531.7991"/>
<polygon fill="#000000" stroke="#000000" stroke-width="2" points="982.106,-532.429 986.9547,-541.8493 989.0389,-531.4615 982.106,-532.429"/>
</g>
<!-- hyper_testicles -->
<g id="node55" class="node">
<title>hyper_testicles</title>
<ellipse fill="none" stroke="#000000" stroke-width="0" cx="955.0744" cy="-459.0437" rx="81.7856" ry="18"/>
<text text-anchor="middle" x="955.0744" y="-455.3437" font-family="Times,serif" font-size="14.00" fill="#000000">hyper_testicles</text>
</g>
<!-- hyper_testicles&#45;&gt;hyper_balls -->
<g id="edge54" class="edge">
<title>hyper_testicles&#45;&gt;hyper_balls</title>
<path fill="none" stroke="#000000" d="M965.2532,-476.9214C965.7222,-477.7452 966.197,-478.5791 966.6749,-479.4185"/>
<polygon fill="#000000" stroke="#000000" points="963.8157,-481.4705 971.8051,-488.429 969.8988,-478.0071 963.8157,-481.4705"/>
</g>
</g>
</svg>
